<svg xmlns="http://www.w3.org/2000/svg" width="16" height="16" viewBox="0 0 256 256"><path d="M182.448 35.618c14.634 0 28.388 5.7 38.737 16.046 21.36 21.36 21.36 56.114 0 77.476l-54.447 54.447L128 222.323l-38.738-38.738-54.447-54.448c-21.36-21.359-21.36-56.114 0-77.476C45.16 41.315 58.918 35.616 73.552 35.616c14.635 0 28.39 5.7 38.738 16.045l3.829 3.83L128 67.373l11.881-11.881 3.829-3.829c10.349-10.349 24.106-16.046 38.738-16.046m0-16.804c-18.32 0-36.643 6.988-50.62 20.966L128 43.61l-3.829-3.83c-13.978-13.978-32.299-20.966-50.619-20.966S36.91 25.802 22.931 39.78c-27.958 27.958-27.958 73.283 0 101.24l54.447 54.448h.003L128 246.09l50.619-50.619 54.447-54.447c27.958-27.958 27.958-73.283 0-101.24-13.976-13.982-32.296-20.97-50.618-20.97z"/></svg>