<svg id="Група_2" data-name="Група 2" xmlns="http://www.w3.org/2000/svg" width="193" height="194"><defs><filter id="filter" x="864" y="543" width="193" height="194" filterUnits="userSpaceOnUse"><feOffset result="offset" dy="6" in="SourceAlpha"/><feGaussianBlur result="blur" stdDeviation="7.55"/><feFlood result="flood" flood-color="#252525" flood-opacity=".05"/><feComposite result="composite" operator="in" in2="blur"/><feBlend result="blend" in="SourceGraphic"/></filter></defs><path id="Rectangle_2_copy" data-name="Rectangle 2 copy" d="M940 593.918h40a19.982 19.982 0 0120 20v40a19.983 19.983 0 01-20 20h-40a19.983 19.983 0 01-20-20v-40a19.982 19.982 0 0120-20z" transform="translate(-864 -543)" fill-rule="evenodd" fill="#a3bbc8" filter="url(#filter)"/><path id="icon" d="M942.975 650.918a.957.957 0 01-.669-.272.922.922 0 01-.278-.659L942 629.786v-.017a.927.927 0 01.408-.754l5.322-3.616v-3.838a.94.94 0 01.948-.932h6.067l5.217-3.546a.961.961 0 011.079 0l5.185 3.545h6.093a.94.94 0 01.947.932v3.882l5.3 3.621a.933.933 0 01.373.519.528.528 0 01.034.184l.027 20.171a.941.941 0 01-.946.933l-35.077.048zm2.773-1.867l29.478-.041-14.712-11.224zm-1.828-.965l11.443-8.73-11.463-7.793zm21.72-8.748l11.461 8.744-.023-16.565zm-16.014-6.148l7.308 4.968 3-2.288a.959.959 0 011.148-.008l.013.008 2.977 2.272 7.3-4.993v-10.656h-21.746v10.7zm-5.013-3.408l3.118 2.121v-4.241zm28.654 2.072l3.028-2.071-3.028-2.07v4.141zm-15.188-11.225h4.828l-2.407-1.645zm-3.994 12.3a.933.933 0 110-1.865h12.83a.933.933 0 110 1.865h-12.83zm0-4.847a.932.932 0 110-1.864h12.83a.932.932 0 110 1.864h-12.83z" transform="translate(-864 -543)" fill="#fff" fill-rule="evenodd"/></svg>