<svg xmlns="http://www.w3.org/2000/svg" width="11" height="13" viewBox="0 0 11 12"><path d="M3.633 6.75h-.98a.289.289 0 01-.298-.281V5.53c0-.156.133-.281.297-.281h.98a.29.29 0 01.298.281v.938a.289.289 0 01-.297.281zm2.652-.281V5.53a.288.288 0 00-.293-.281h-.984a.288.288 0 00-.293.281v.938c0 .156.133.281.293.281h.984c.16 0 .293-.125.293-.281zm2.36 0V5.53a.289.289 0 00-.297-.281h-.98a.289.289 0 00-.298.281v.938c0 .156.133.281.297.281h.98a.289.289 0 00.298-.281zm-2.36 2.25V7.78a.288.288 0 00-.293-.281h-.984a.288.288 0 00-.293.281v.938c0 .156.133.281.293.281h.984c.16 0 .293-.125.293-.281zm-2.355 0V7.78a.289.289 0 00-.297-.281h-.98a.289.289 0 00-.298.281v.938c0 .156.133.281.297.281h.98a.289.289 0 00.298-.281zm4.715 0V7.78a.289.289 0 00-.297-.281h-.98a.289.289 0 00-.298.281v.938c0 .156.133.281.297.281h.98a.289.289 0 00.298-.281zM11 2.625v8.25C11 11.496 10.473 12 9.82 12H1.18C.527 12 0 11.496 0 10.875v-8.25C0 2.004.527 1.5 1.18 1.5h1.175V.281c0-.156.133-.281.297-.281h.98a.29.29 0 01.298.281V1.5h3.14V.281c0-.156.133-.281.297-.281h.98a.29.29 0 01.298.281V1.5H9.82c.653 0 1.18.504 1.18 1.125zm-1.18 8.11V3.75H1.18v6.984c0 .079.066.141.144.141h8.352a.143.143 0 00.144-.14zm0 0" id="surface1"/></svg>