<svg xmlns="http://www.w3.org/2000/svg" width="11" height="13" viewBox="0 0 11 12"><path d="M7.7 7.125c-.704 0-1.044.375-2.2.375-1.156 0-1.492-.375-2.2-.375-1.823 0-3.3 1.41-3.3 3.148v.602C0 11.496.527 12 1.18 12h8.64c.653 0 1.18-.504 1.18-1.125v-.602c0-1.738-1.477-3.148-3.3-3.148zm2.12 3.75H1.18v-.602c0-1.113.953-2.023 2.12-2.023.36 0 .942.375 2.2.375 1.27 0 1.84-.375 2.2-.375 1.167 0 2.12.91 2.12 2.023zM5.5 6.75c1.953 0 3.535-1.512 3.535-3.375S7.453 0 5.5 0 1.965 1.512 1.965 3.375 3.547 6.75 5.5 6.75zm0-5.625c1.3 0 2.355 1.012 2.355 2.25S6.801 5.625 5.5 5.625c-1.3 0-2.355-1.012-2.355-2.25s1.054-2.25 2.355-2.25zm0 0" id="surface1"/></svg>